{"title":"Godzilla Tokyo S.O.S. (2003)","uid":5620107,"size":1682658630,"categoryP":"video","categoryS":"movies","magnet":"?xt=urn:btih:89298cfa5fc0d63597f9558fec9ebd06e981f9e5&amp;dn=Godzilla+Tokyo+S.O.S.+%282003%29&amp;tr=udp%3A%2F%2Ftracker.openbittorrent.com%3A80&amp;tr=udp%3A%2F%2Fopen.demonii.com%3A1337&amp;tr=udp%3A%2F%2Ftracker.coppersurfer.tk%3A6969&amp;tr=udp%3A%2F%2Fexodus.desync.com%3A6969","seeders":0,"leechers":1,"uploader":"Beebe85","files":-1,"time":1276233349,"description":"Godzilla Tokyo S.O.S. (2003) Toho 50th Anniversary DVDRip \n &lt;a href=&quot;\nhttp://www.imdb.com/title/tt0366526/&quot; rel=&quot;nofollow&quot; target=&quot;_NEW&quot;&gt;\nhttp://www.imdb.com/title/tt0366526/&lt;/a&gt;\n\n\n\n\n\nGeneral\nComplete name                    : Godzilla Tokyo S.O.S. (2003)DVD_VIDEO.Title1.avi.\nFormat                           : AVI\nFormat/Info                      : Audio Video Interleave\nFile size                        : 1.56 GiB\nDuration                         : 1h 31mn\nOverall bit rate                 : 2459 Kbps\nMovie name                       : DVD_VIDEO.Title1.DVDRip\nWriting application              : Lavf52.33.0\nOriginal source form/Name        : DVD_VIDEO\n\nVideo\nID                               : 0\nFormat                           : MPEG-4 Visual\nFormat profile                   : Simple@L3\nFormat settings, BVOP            : No\nFormat settings, QPel            : No\nFormat settings, GMC             : No warppoints\nFormat settings, Matrix          : Default (H.263)\nCodec ID                         : XVID\nCodec ID/Hint                    : XviD\nDuration                         : 1h 31mn\nBit rate                         : 2000 Kbps\nWidth                            : 800 pixels\nHeight                           : 340 pixels\nDisplay aspect ratio             : 2.35:1\nFrame rate                       : 23.976 fps\nResolution                       : 24 bits\nColorimetry                      : 4:2:0\nScan type                        : Progressive\nBits/(Pixel*Frame)               : 0.307\nStream size                      : 1.27 GiB (81%)\nWriting library                  : XviD 1.2.1 (UTC 2008-12-04)\n\nAudio\nID                               : 1\nFormat                           : AC-3\nFormat/Info                      : Audio Coding 3\nCodec ID                         : 2000\nDuration                         : 1h 31mn\nBit rate mode                    : Constant\nBit rate                         : 448 Kbps\nChannel(s)                       : 6 channels\nChannel positions                : Front: L C R, Surround: L R, LFE\nSampling rate                    : 48.0 KHz\nStream size                      : 292 MiB (18%)\nAlignment                        : Aligned on interleaves\nInterleave, duration             : 32 ms (0.77 video frame)\nInterleave, preload duration     : 32 ms\n\n","torrent":{"xt":"urn:btih:89298cfa5fc0d63597f9558fec9ebd06e981f9e5","amp;dn":"Godzilla+Tokyo+S.O.S.+%282003%29","amp;tr":["udp%3A%2F%2Ftracker.openbittorrent.com%3A80","udp%3A%2F%2Fopen.demonii.com%3A1337","udp%3A%2F%2Ftracker.coppersurfer.tk%3A6969","udp%3A%2F%2Fexodus.desync.com%3A6969"],"infoHash":"89298cfa5fc0d63597f9558fec9ebd06e981f9e5","infoHashBuffer":{"type":"Buffer","data":[137,41,140,250,95,192,214,53,151,249,85,143,236,158,189,6,233,129,249,229]},"announce":[],"urlList":[]}}